<?xml version="1.0" encoding="UTF-8" standalone="no"?>
<!DOCTYPE svg PUBLIC "-//W3C//DTD SVG 1.1//EN" "http://www.w3.org/Graphics/SVG/1.1/DTD/svg11.dtd">
<svg width="100%" height="100%" viewBox="0 0 49 49" version="1.1" xmlns="http://www.w3.org/2000/svg" style="fill-rule:evenodd;clip-rule:evenodd;stroke-linejoin:round;stroke-miterlimit:2;">
    <rect id="icon_ai" x="0" y="0" width="49" height="49" style="fill:none;"/>
    <path d="M24.5,7l2.2,8.3l8.3,2.2l-8.3,2.2l-2.2,8.3l-2.2,-8.3l-8.3,-2.2l8.3,-2.2l2.2,-8.3Z"/>
    <path d="M14.5,24l1.4,5.1l5.1,1.4l-5.1,1.4l-1.4,5.1l-1.4,-5.1l-5.1,-1.4l5.1,-1.4l1.4,-5.1Z"/>
    <path d="M34.5,25l1.7,6.2l6.2,1.7l-6.2,1.7l-1.7,6.2l-1.7,-6.2l-6.2,-1.7l6.2,-1.7l1.7,-6.2Z"/>
</svg>
